<svg xmlns="http://www.w3.org/2000/svg" viewBox="0 0 48 48" width="48" height="48">
  <rect width="48" height="48" rx="12" fill="#002452"/>
  <svg x="8" y="8" width="32" height="32" xmlns="http://www.w3.org/2000/svg" viewBox="0 96 960 960">
    <path fill="#6ffbbe" d="M560 616q-17 0-28.5-11.5T520 576q0-17 11.5-28.5T560 536q17 0 28.5 11.5T600 576q0 17-11.5 28.5T560 616ZM160 776V376v400Zm0 80q-33 0-56.5-23.5T80 776V376q0-33 23.5-56.5T160 296h640q33 0 56.5 23.5T880 376v120h-80V376H160v400h640V656h80v120q0 33-23.5 56.5T800 856H160Zm320-160q-17 0-28.5-11.5T440 656V496q0-17 11.5-28.5T480 456h280q17 0 28.5 11.5T800 496v160q0 17-11.5 28.5T760 696H480Zm20-80h240V516H500v80Z"/>
  </svg>
</svg>
